<mxfile host="app.diagrams.net" agent="Mozilla/5.0 (Macintosh; Intel Mac OS X 10_15_7) AppleWebKit/605.1.15 (KHTML, like Gecko) Version/18.4 Safari/605.1.15" version="26.3.0">
  <diagram name="Page-1" id="13e1069c-82ec-6db2-03f1-153e76fe0fe0">
    <mxGraphModel dx="2071" dy="1127" grid="1" gridSize="10" guides="1" tooltips="1" connect="1" arrows="1" fold="1" page="1" pageScale="1" pageWidth="1100" pageHeight="850" background="none" math="0" shadow="0">
      <root>
        <mxCell id="0" />
        <mxCell id="1" parent="0" />
        <mxCell id="7baba1c4bc27f4b0-2" value="Cash Register" style="shape=umlLifeline;perimeter=lifelinePerimeter;whiteSpace=wrap;html=1;container=1;collapsible=0;recursiveResize=0;outlineConnect=0;rounded=1;shadow=0;comic=0;labelBackgroundColor=none;strokeWidth=1;fontFamily=Verdana;fontSize=12;align=center;" parent="1" vertex="1">
          <mxGeometry x="497" y="170" width="100" height="1062" as="geometry" />
        </mxCell>
        <mxCell id="802l4Ufk_lqTuoDWVHih-7" value="Take order" style="html=1;verticalAlign=bottom;endArrow=block;entryX=0;entryY=0;labelBackgroundColor=none;fontFamily=Verdana;fontSize=12;edgeStyle=elbowEdgeStyle;elbow=vertical;" parent="7baba1c4bc27f4b0-2" edge="1">
          <mxGeometry relative="1" as="geometry">
            <mxPoint x="-85" y="132" as="sourcePoint" />
            <mxPoint x="45" y="132" as="targetPoint" />
          </mxGeometry>
        </mxCell>
        <mxCell id="802l4Ufk_lqTuoDWVHih-41" value="" style="html=1;points=[[0,0,0,0,5],[0,1,0,0,-5],[1,0,0,0,5],[1,1,0,0,-5]];perimeter=orthogonalPerimeter;outlineConnect=0;targetShapes=umlLifeline;portConstraint=eastwest;newEdgeStyle={&quot;curved&quot;:0,&quot;rounded&quot;:0};fillColor=#FFFFFF;" parent="7baba1c4bc27f4b0-2" vertex="1">
          <mxGeometry x="45" y="132" width="10" height="658" as="geometry" />
        </mxCell>
        <mxCell id="7baba1c4bc27f4b0-3" value="Payment Provider" style="shape=umlLifeline;perimeter=lifelinePerimeter;whiteSpace=wrap;html=1;container=1;collapsible=0;recursiveResize=0;outlineConnect=0;rounded=1;shadow=0;comic=0;labelBackgroundColor=none;strokeWidth=1;fontFamily=Verdana;fontSize=12;align=center;" parent="1" vertex="1">
          <mxGeometry x="657" y="170" width="100" height="1062" as="geometry" />
        </mxCell>
        <mxCell id="802l4Ufk_lqTuoDWVHih-38" value="Prepare order" style="html=1;verticalAlign=bottom;endArrow=none;labelBackgroundColor=none;fontFamily=Verdana;fontSize=12;edgeStyle=elbowEdgeStyle;elbow=vertical;startFill=1;startArrow=block;" parent="7baba1c4bc27f4b0-3" source="802l4Ufk_lqTuoDWVHih-39" edge="1">
          <mxGeometry relative="1" as="geometry">
            <mxPoint x="-386" y="901" as="sourcePoint" />
            <mxPoint x="198.5" y="901" as="targetPoint" />
          </mxGeometry>
        </mxCell>
        <mxCell id="802l4Ufk_lqTuoDWVHih-42" value="" style="html=1;points=[[0,0,0,0,5],[0,1,0,0,-5],[1,0,0,0,5],[1,1,0,0,-5]];perimeter=orthogonalPerimeter;outlineConnect=0;targetShapes=umlLifeline;portConstraint=eastwest;newEdgeStyle={&quot;curved&quot;:0,&quot;rounded&quot;:0};" parent="7baba1c4bc27f4b0-3" vertex="1">
          <mxGeometry x="45" y="152" width="10" height="538" as="geometry" />
        </mxCell>
        <mxCell id="7baba1c4bc27f4b0-4" value="Barista" style="shape=umlLifeline;perimeter=lifelinePerimeter;whiteSpace=wrap;html=1;container=1;collapsible=0;recursiveResize=0;outlineConnect=0;rounded=1;shadow=0;comic=0;labelBackgroundColor=none;strokeWidth=1;fontFamily=Verdana;fontSize=12;align=center;" parent="1" vertex="1">
          <mxGeometry x="797" y="170" width="117.59" height="1062" as="geometry" />
        </mxCell>
        <mxCell id="802l4Ufk_lqTuoDWVHih-43" value="" style="html=1;points=[[0,0,0,0,5],[0,1,0,0,-5],[1,0,0,0,5],[1,1,0,0,-5]];perimeter=orthogonalPerimeter;outlineConnect=0;targetShapes=umlLifeline;portConstraint=eastwest;newEdgeStyle={&quot;curved&quot;:0,&quot;rounded&quot;:0};" parent="7baba1c4bc27f4b0-4" vertex="1">
          <mxGeometry x="53.79" y="822" width="10" height="88" as="geometry" />
        </mxCell>
        <mxCell id="7baba1c4bc27f4b0-8" value="Cashier" style="shape=umlLifeline;perimeter=lifelinePerimeter;whiteSpace=wrap;html=1;container=1;collapsible=0;recursiveResize=0;outlineConnect=0;rounded=1;shadow=0;comic=0;labelBackgroundColor=none;strokeWidth=1;fontFamily=Verdana;fontSize=12;align=center;" parent="1" vertex="1">
          <mxGeometry x="357" y="170" width="100" height="1062" as="geometry" />
        </mxCell>
        <mxCell id="802l4Ufk_lqTuoDWVHih-6" value="Make order" style="html=1;verticalAlign=bottom;endArrow=block;entryX=0;entryY=0;labelBackgroundColor=none;fontFamily=Verdana;fontSize=12;edgeStyle=elbowEdgeStyle;elbow=vertical;" parent="7baba1c4bc27f4b0-8" edge="1">
          <mxGeometry relative="1" as="geometry">
            <mxPoint x="-85" y="110" as="sourcePoint" />
            <mxPoint x="45" y="110" as="targetPoint" />
            <mxPoint as="offset" />
          </mxGeometry>
        </mxCell>
        <mxCell id="802l4Ufk_lqTuoDWVHih-5" value="" style="endArrow=none;dashed=1;html=1;rounded=0;" parent="7baba1c4bc27f4b0-8" edge="1">
          <mxGeometry width="50" height="50" relative="1" as="geometry">
            <mxPoint x="-86" y="1062" as="sourcePoint" />
            <mxPoint x="-86" y="42" as="targetPoint" />
          </mxGeometry>
        </mxCell>
        <mxCell id="802l4Ufk_lqTuoDWVHih-39" value="" style="html=1;points=[[0,0,0,0,5],[0,1,0,0,-5],[1,0,0,0,5],[1,1,0,0,-5]];perimeter=orthogonalPerimeter;outlineConnect=0;targetShapes=umlLifeline;portConstraint=eastwest;newEdgeStyle={&quot;curved&quot;:0,&quot;rounded&quot;:0};" parent="7baba1c4bc27f4b0-8" vertex="1">
          <mxGeometry x="45" y="110" width="10" height="850" as="geometry" />
        </mxCell>
        <mxCell id="802l4Ufk_lqTuoDWVHih-15" value="Use credit card to pay" style="html=1;verticalAlign=bottom;endArrow=block;labelBackgroundColor=none;fontFamily=Verdana;fontSize=12;edgeStyle=elbowEdgeStyle;elbow=vertical;" parent="7baba1c4bc27f4b0-8" edge="1">
          <mxGeometry relative="1" as="geometry">
            <mxPoint x="-84" y="181" as="sourcePoint" />
            <mxPoint x="184" y="181" as="targetPoint" />
          </mxGeometry>
        </mxCell>
        <mxCell id="7baba1c4bc27f4b0-21" value="Credit card OK" style="html=1;verticalAlign=bottom;endArrow=block;dashed=1;endSize=8;labelBackgroundColor=none;fontFamily=Verdana;fontSize=12;edgeStyle=elbowEdgeStyle;elbow=vertical;endFill=1;" parent="1" edge="1">
          <mxGeometry x="0.001" relative="1" as="geometry">
            <mxPoint x="550.155172413793" y="438" as="targetPoint" />
            <Array as="points">
              <mxPoint x="649" y="438" />
              <mxPoint x="679" y="438" />
            </Array>
            <mxPoint x="705" y="438" as="sourcePoint" />
            <mxPoint as="offset" />
          </mxGeometry>
        </mxCell>
        <mxCell id="7baba1c4bc27f4b0-14" value="Calculate order" style="html=1;verticalAlign=bottom;endArrow=block;entryX=0;entryY=0;labelBackgroundColor=none;fontFamily=Verdana;fontSize=12;edgeStyle=elbowEdgeStyle;elbow=vertical;" parent="1" edge="1">
          <mxGeometry relative="1" as="geometry">
            <mxPoint x="552" y="324" as="sourcePoint" />
            <mxPoint x="702" y="324" as="targetPoint" />
          </mxGeometry>
        </mxCell>
        <mxCell id="802l4Ufk_lqTuoDWVHih-2" value="Customer" style="shape=umlActor;verticalLabelPosition=bottom;verticalAlign=top;html=1;outlineConnect=0;" parent="1" vertex="1">
          <mxGeometry x="259" y="132" width="30" height="60" as="geometry" />
        </mxCell>
        <mxCell id="802l4Ufk_lqTuoDWVHih-8" value="" style="endArrow=block;html=1;rounded=0;endFill=1;" parent="1" source="802l4Ufk_lqTuoDWVHih-41" edge="1">
          <mxGeometry width="50" height="50" relative="1" as="geometry">
            <mxPoint x="699" y="474" as="sourcePoint" />
            <mxPoint x="269" y="474" as="targetPoint" />
          </mxGeometry>
        </mxCell>
        <mxCell id="802l4Ufk_lqTuoDWVHih-11" value="Request PIN" style="text;html=1;align=center;verticalAlign=middle;whiteSpace=wrap;rounded=0;" parent="1" vertex="1">
          <mxGeometry x="439" y="446" width="78" height="30" as="geometry" />
        </mxCell>
        <mxCell id="802l4Ufk_lqTuoDWVHih-12" value="Alternative" style="shape=umlFrame;whiteSpace=wrap;html=1;pointerEvents=0;recursiveResize=0;container=1;collapsible=0;width=130;height=27;" parent="1" vertex="1">
          <mxGeometry x="121" y="412" width="600" height="210" as="geometry" />
        </mxCell>
        <mxCell id="802l4Ufk_lqTuoDWVHih-13" value="[if credit card is valid]" style="text;html=1;" parent="802l4Ufk_lqTuoDWVHih-12" vertex="1">
          <mxGeometry width="100" height="20" relative="1" as="geometry">
            <mxPoint x="20" y="40" as="offset" />
          </mxGeometry>
        </mxCell>
        <mxCell id="802l4Ufk_lqTuoDWVHih-14" value="[else]" style="line;strokeWidth=1;dashed=1;labelPosition=center;verticalLabelPosition=bottom;align=left;verticalAlign=top;spacingLeft=20;spacingTop=15;html=1;whiteSpace=wrap;" parent="802l4Ufk_lqTuoDWVHih-12" vertex="1">
          <mxGeometry y="97" width="600" height="10" as="geometry" />
        </mxCell>
        <mxCell id="802l4Ufk_lqTuoDWVHih-19" value="Eject credit card" style="html=1;verticalAlign=bottom;endArrow=none;labelBackgroundColor=none;fontFamily=Verdana;fontSize=12;edgeStyle=elbowEdgeStyle;elbow=vertical;startFill=1;startArrow=block;" parent="802l4Ufk_lqTuoDWVHih-12" target="802l4Ufk_lqTuoDWVHih-41" edge="1">
          <mxGeometry relative="1" as="geometry">
            <mxPoint x="150" y="180" as="sourcePoint" />
            <mxPoint x="280" y="180" as="targetPoint" />
          </mxGeometry>
        </mxCell>
        <mxCell id="802l4Ufk_lqTuoDWVHih-16" value="Verify credit card" style="html=1;verticalAlign=bottom;endArrow=block;entryX=0;entryY=0;labelBackgroundColor=none;fontFamily=Verdana;fontSize=12;edgeStyle=elbowEdgeStyle;elbow=horizontal;" parent="1" edge="1">
          <mxGeometry relative="1" as="geometry">
            <mxPoint x="552" y="392" as="sourcePoint" />
            <mxPoint x="702" y="392" as="targetPoint" />
          </mxGeometry>
        </mxCell>
        <mxCell id="802l4Ufk_lqTuoDWVHih-17" value="Credit card invalid" style="html=1;verticalAlign=bottom;endArrow=block;dashed=1;endSize=8;labelBackgroundColor=none;fontFamily=Verdana;fontSize=12;edgeStyle=elbowEdgeStyle;elbow=vertical;endFill=1;" parent="1" edge="1">
          <mxGeometry x="0.085" relative="1" as="geometry">
            <mxPoint x="550.155172413793" y="548" as="targetPoint" />
            <Array as="points">
              <mxPoint x="649" y="548" />
              <mxPoint x="679" y="548" />
            </Array>
            <mxPoint x="705" y="548" as="sourcePoint" />
            <mxPoint as="offset" />
          </mxGeometry>
        </mxCell>
        <mxCell id="802l4Ufk_lqTuoDWVHih-20" value="" style="endArrow=block;startArrow=none;endFill=1;startFill=0;endSize=8;html=1;verticalAlign=bottom;dashed=1;labelBackgroundColor=none;rounded=0;" parent="1" edge="1">
          <mxGeometry width="160" relative="1" as="geometry">
            <mxPoint x="271" y="662" as="sourcePoint" />
            <mxPoint x="541" y="662" as="targetPoint" />
          </mxGeometry>
        </mxCell>
        <mxCell id="802l4Ufk_lqTuoDWVHih-25" value="Verify PIN" style="html=1;verticalAlign=bottom;endArrow=block;entryX=0;entryY=0;labelBackgroundColor=none;fontFamily=Verdana;fontSize=12;edgeStyle=elbowEdgeStyle;elbow=horizontal;" parent="1" edge="1">
          <mxGeometry relative="1" as="geometry">
            <mxPoint x="554" y="692" as="sourcePoint" />
            <mxPoint x="704" y="692" as="targetPoint" />
          </mxGeometry>
        </mxCell>
        <mxCell id="802l4Ufk_lqTuoDWVHih-26" value="Alternative" style="shape=umlFrame;whiteSpace=wrap;html=1;pointerEvents=0;recursiveResize=0;container=1;collapsible=0;width=130;height=27;" parent="1" vertex="1">
          <mxGeometry x="121" y="712" width="600" height="207" as="geometry" />
        </mxCell>
        <mxCell id="802l4Ufk_lqTuoDWVHih-27" value="[if PIN is valid]" style="text;html=1;" parent="802l4Ufk_lqTuoDWVHih-26" vertex="1">
          <mxGeometry width="100" height="20" relative="1" as="geometry">
            <mxPoint x="20" y="40" as="offset" />
          </mxGeometry>
        </mxCell>
        <mxCell id="802l4Ufk_lqTuoDWVHih-28" value="[else]" style="line;strokeWidth=1;dashed=1;labelPosition=center;verticalLabelPosition=bottom;align=left;verticalAlign=top;spacingLeft=20;spacingTop=15;html=1;whiteSpace=wrap;" parent="802l4Ufk_lqTuoDWVHih-26" vertex="1">
          <mxGeometry y="97" width="600" height="10" as="geometry" />
        </mxCell>
        <mxCell id="802l4Ufk_lqTuoDWVHih-29" value="Eject credit card" style="html=1;verticalAlign=bottom;endArrow=none;labelBackgroundColor=none;fontFamily=Verdana;fontSize=12;edgeStyle=elbowEdgeStyle;elbow=vertical;startFill=1;startArrow=block;" parent="802l4Ufk_lqTuoDWVHih-26" target="802l4Ufk_lqTuoDWVHih-41" edge="1">
          <mxGeometry relative="1" as="geometry">
            <mxPoint x="150" y="169.000909090909" as="sourcePoint" />
            <mxPoint x="282" y="169.16" as="targetPoint" />
          </mxGeometry>
        </mxCell>
        <mxCell id="802l4Ufk_lqTuoDWVHih-35" value="Proceed with payment" style="html=1;verticalAlign=bottom;endArrow=block;entryX=0;entryY=0;labelBackgroundColor=none;fontFamily=Verdana;fontSize=12;edgeStyle=elbowEdgeStyle;elbow=vertical;" parent="802l4Ufk_lqTuoDWVHih-26" edge="1">
          <mxGeometry relative="1" as="geometry">
            <mxPoint x="430" y="70.08999999999992" as="sourcePoint" />
            <mxPoint x="580" y="70.08999999999992" as="targetPoint" />
          </mxGeometry>
        </mxCell>
        <mxCell id="802l4Ufk_lqTuoDWVHih-30" value="PIN invalid" style="html=1;verticalAlign=bottom;endArrow=block;dashed=1;endSize=8;labelBackgroundColor=none;fontFamily=Verdana;fontSize=12;edgeStyle=elbowEdgeStyle;elbow=vertical;endFill=1;" parent="1" edge="1">
          <mxGeometry x="0.085" relative="1" as="geometry">
            <mxPoint x="550.155172413793" y="848" as="targetPoint" />
            <Array as="points">
              <mxPoint x="649" y="848" />
              <mxPoint x="679" y="848" />
            </Array>
            <mxPoint x="705" y="848" as="sourcePoint" />
            <mxPoint as="offset" />
          </mxGeometry>
        </mxCell>
        <mxCell id="802l4Ufk_lqTuoDWVHih-32" value="PIN OK" style="html=1;verticalAlign=bottom;endArrow=block;dashed=1;endSize=8;labelBackgroundColor=none;fontFamily=Verdana;fontSize=12;edgeStyle=elbowEdgeStyle;elbow=vertical;endFill=1;" parent="1" edge="1">
          <mxGeometry x="0.001" relative="1" as="geometry">
            <mxPoint x="550.155172413793" y="738" as="targetPoint" />
            <Array as="points">
              <mxPoint x="649" y="738" />
              <mxPoint x="679" y="738" />
            </Array>
            <mxPoint x="705" y="738" as="sourcePoint" />
            <mxPoint as="offset" />
          </mxGeometry>
        </mxCell>
        <mxCell id="802l4Ufk_lqTuoDWVHih-36" value="PaymentAccepted" style="html=1;verticalAlign=bottom;endArrow=block;dashed=1;endSize=8;labelBackgroundColor=none;fontFamily=Verdana;fontSize=12;edgeStyle=elbowEdgeStyle;elbow=vertical;endFill=1;" parent="1" edge="1">
          <mxGeometry x="0.001" relative="1" as="geometry">
            <mxPoint x="411" y="952" as="targetPoint" />
            <Array as="points" />
            <mxPoint x="541" y="952" as="sourcePoint" />
            <mxPoint as="offset" />
          </mxGeometry>
        </mxCell>
        <mxCell id="802l4Ufk_lqTuoDWVHih-37" value="Forward order" style="html=1;verticalAlign=bottom;endArrow=block;labelBackgroundColor=none;fontFamily=Verdana;fontSize=12;edgeStyle=elbowEdgeStyle;elbow=vertical;" parent="1" edge="1">
          <mxGeometry relative="1" as="geometry">
            <mxPoint x="411" y="1002" as="sourcePoint" />
            <mxPoint x="851" y="1002" as="targetPoint" />
          </mxGeometry>
        </mxCell>
        <mxCell id="802l4Ufk_lqTuoDWVHih-40" value="Serve order" style="html=1;verticalAlign=bottom;endArrow=none;labelBackgroundColor=none;fontFamily=Verdana;fontSize=12;edgeStyle=elbowEdgeStyle;elbow=vertical;startFill=1;startArrow=block;" parent="1" edge="1">
          <mxGeometry relative="1" as="geometry">
            <mxPoint x="271" y="1122" as="sourcePoint" />
            <mxPoint x="401" y="1122" as="targetPoint" />
          </mxGeometry>
        </mxCell>
        <mxCell id="802l4Ufk_lqTuoDWVHih-21" value="PIN entered" style="text;html=1;align=center;verticalAlign=middle;resizable=0;points=[];autosize=1;strokeColor=none;fillColor=none;" parent="1" vertex="1">
          <mxGeometry x="421" y="632" width="90" height="30" as="geometry" />
        </mxCell>
        <mxCell id="q32e-Nsv5xrbjenCgJHf-1" value="&lt;span style=&quot;text-align: start;&quot; id=&quot;docs-internal-guid-cdbfab5d-7fff-5e67-5db4-cd795bbfa352&quot;&gt;&lt;span style=&quot;font-size: 12pt; font-family: Calibri, sans-serif; color: rgb(31, 56, 99); font-variant-ligatures: normal; font-variant-alternates: normal; font-variant-numeric: normal; font-variant-east-asian: normal; font-variant-position: normal; vertical-align: baseline; white-space: pre-wrap;&quot;&gt;Exercise 3: Sequence Diagrams 1&lt;/span&gt;&lt;/span&gt;" style="text;html=1;align=center;verticalAlign=middle;whiteSpace=wrap;rounded=0;" parent="1" vertex="1">
          <mxGeometry x="40" y="30" width="300" height="30" as="geometry" />
        </mxCell>
        <mxCell id="q32e-Nsv5xrbjenCgJHf-2" value="&lt;span style=&quot;text-align: start;&quot; id=&quot;docs-internal-guid-c14298d2-7fff-0f40-d17e-be7b95646ebd&quot;&gt;&lt;span style=&quot;font-size: 12pt; font-family: Calibri, sans-serif; color: rgb(31, 56, 99); font-variant-ligatures: normal; font-variant-alternates: normal; font-variant-numeric: normal; font-variant-east-asian: normal; font-variant-position: normal; vertical-align: baseline; white-space: pre-wrap;&quot;&gt;Exercise 4: Sequence Diagrams 2&lt;/span&gt;&lt;/span&gt;" style="text;html=1;align=center;verticalAlign=middle;whiteSpace=wrap;rounded=0;" parent="1" vertex="1">
          <mxGeometry x="40" y="1320" width="300" height="30" as="geometry" />
        </mxCell>
        <mxCell id="q32e-Nsv5xrbjenCgJHf-17" value="Customer" style="shape=umlActor;verticalLabelPosition=bottom;verticalAlign=top;html=1;outlineConnect=0;" parent="1" vertex="1">
          <mxGeometry x="150" y="1390" width="30" height="60" as="geometry" />
        </mxCell>
        <mxCell id="q32e-Nsv5xrbjenCgJHf-19" value="" style="rounded=1;whiteSpace=wrap;html=1;" parent="1" vertex="1">
          <mxGeometry x="270" y="1390" width="110" height="50" as="geometry" />
        </mxCell>
        <mxCell id="q32e-Nsv5xrbjenCgJHf-20" value="" style="rounded=1;whiteSpace=wrap;html=1;" parent="1" vertex="1">
          <mxGeometry x="440" y="1390" width="110" height="50" as="geometry" />
        </mxCell>
        <mxCell id="q32e-Nsv5xrbjenCgJHf-21" value="" style="rounded=1;whiteSpace=wrap;html=1;" parent="1" vertex="1">
          <mxGeometry x="610" y="1390" width="110" height="50" as="geometry" />
        </mxCell>
        <mxCell id="q32e-Nsv5xrbjenCgJHf-22" value="" style="rounded=1;whiteSpace=wrap;html=1;" parent="1" vertex="1">
          <mxGeometry x="780" y="1390" width="110" height="50" as="geometry" />
        </mxCell>
        <mxCell id="q32e-Nsv5xrbjenCgJHf-26" value="Self-Service Terminal" style="text;html=1;align=center;verticalAlign=middle;whiteSpace=wrap;rounded=0;" parent="1" vertex="1">
          <mxGeometry x="280" y="1400" width="90" height="30" as="geometry" />
        </mxCell>
        <mxCell id="q32e-Nsv5xrbjenCgJHf-27" value="Order System" style="text;html=1;align=center;verticalAlign=middle;whiteSpace=wrap;rounded=0;" parent="1" vertex="1">
          <mxGeometry x="450" y="1400" width="90" height="30" as="geometry" />
        </mxCell>
        <mxCell id="q32e-Nsv5xrbjenCgJHf-28" value="Payment Provider" style="text;html=1;align=center;verticalAlign=middle;whiteSpace=wrap;rounded=0;" parent="1" vertex="1">
          <mxGeometry x="620" y="1400" width="90" height="30" as="geometry" />
        </mxCell>
        <mxCell id="q32e-Nsv5xrbjenCgJHf-29" value="Kitchen" style="text;html=1;align=center;verticalAlign=middle;whiteSpace=wrap;rounded=0;" parent="1" vertex="1">
          <mxGeometry x="790" y="1400" width="90" height="30" as="geometry" />
        </mxCell>
        <mxCell id="q32e-Nsv5xrbjenCgJHf-34" value="" style="endArrow=none;dashed=1;html=1;rounded=0;entryX=0.5;entryY=1;entryDx=0;entryDy=0;" parent="1" target="q32e-Nsv5xrbjenCgJHf-19" edge="1">
          <mxGeometry width="50" height="50" relative="1" as="geometry">
            <mxPoint x="325" y="2460" as="sourcePoint" />
            <mxPoint x="630" y="1630" as="targetPoint" />
          </mxGeometry>
        </mxCell>
        <mxCell id="q32e-Nsv5xrbjenCgJHf-35" value="" style="endArrow=none;dashed=1;html=1;rounded=0;entryX=0.5;entryY=1;entryDx=0;entryDy=0;" parent="1" target="q32e-Nsv5xrbjenCgJHf-20" edge="1">
          <mxGeometry width="50" height="50" relative="1" as="geometry">
            <mxPoint x="494.5" y="2450" as="sourcePoint" />
            <mxPoint x="494.5" y="1430" as="targetPoint" />
          </mxGeometry>
        </mxCell>
        <mxCell id="q32e-Nsv5xrbjenCgJHf-36" value="" style="endArrow=none;dashed=1;html=1;rounded=0;" parent="1" edge="1">
          <mxGeometry width="50" height="50" relative="1" as="geometry">
            <mxPoint x="670" y="2450" as="sourcePoint" />
            <mxPoint x="671" y="1440" as="targetPoint" />
          </mxGeometry>
        </mxCell>
        <mxCell id="q32e-Nsv5xrbjenCgJHf-37" value="" style="endArrow=none;dashed=1;html=1;rounded=0;" parent="1" edge="1">
          <mxGeometry width="50" height="50" relative="1" as="geometry">
            <mxPoint x="834.5" y="2450" as="sourcePoint" />
            <mxPoint x="835.5" y="1440" as="targetPoint" />
          </mxGeometry>
        </mxCell>
        <mxCell id="q32e-Nsv5xrbjenCgJHf-39" value="" style="endArrow=none;dashed=1;html=1;rounded=0;entryX=0.5;entryY=1;entryDx=0;entryDy=0;" parent="1" edge="1">
          <mxGeometry width="50" height="50" relative="1" as="geometry">
            <mxPoint x="164.5" y="2490" as="sourcePoint" />
            <mxPoint x="164.5" y="1470" as="targetPoint" />
          </mxGeometry>
        </mxCell>
        <mxCell id="q32e-Nsv5xrbjenCgJHf-40" value="Make order" style="html=1;verticalAlign=bottom;endArrow=block;labelBackgroundColor=none;fontFamily=Verdana;fontSize=12;edgeStyle=elbowEdgeStyle;elbow=vertical;" parent="1" edge="1">
          <mxGeometry relative="1" as="geometry">
            <mxPoint x="170" y="1510" as="sourcePoint" />
            <mxPoint x="320" y="1510" as="targetPoint" />
            <mxPoint as="offset" />
          </mxGeometry>
        </mxCell>
        <mxCell id="q32e-Nsv5xrbjenCgJHf-41" value="" style="endArrow=block;html=1;rounded=0;endFill=1;" parent="1" edge="1">
          <mxGeometry width="50" height="50" relative="1" as="geometry">
            <mxPoint x="319" y="1570" as="sourcePoint" />
            <mxPoint x="169" y="1570" as="targetPoint" />
          </mxGeometry>
        </mxCell>
        <mxCell id="q32e-Nsv5xrbjenCgJHf-42" value="Display menu" style="text;html=1;align=center;verticalAlign=middle;whiteSpace=wrap;rounded=0;" parent="1" vertex="1">
          <mxGeometry x="199" y="1540" width="90" height="30" as="geometry" />
        </mxCell>
        <mxCell id="q32e-Nsv5xrbjenCgJHf-43" value="Select items" style="html=1;verticalAlign=bottom;endArrow=block;labelBackgroundColor=none;fontFamily=Verdana;fontSize=12;edgeStyle=elbowEdgeStyle;elbow=vertical;" parent="1" edge="1">
          <mxGeometry relative="1" as="geometry">
            <mxPoint x="169" y="1630" as="sourcePoint" />
            <mxPoint x="319" y="1630" as="targetPoint" />
            <mxPoint as="offset" />
          </mxGeometry>
        </mxCell>
        <mxCell id="q32e-Nsv5xrbjenCgJHf-44" value="Confirm order" style="html=1;verticalAlign=bottom;endArrow=block;labelBackgroundColor=none;fontFamily=Verdana;fontSize=12;edgeStyle=elbowEdgeStyle;elbow=vertical;" parent="1" edge="1">
          <mxGeometry relative="1" as="geometry">
            <mxPoint x="169" y="1706" as="sourcePoint" />
            <mxPoint x="319" y="1706" as="targetPoint" />
            <mxPoint as="offset" />
          </mxGeometry>
        </mxCell>
        <mxCell id="q32e-Nsv5xrbjenCgJHf-45" value="Send order details" style="html=1;verticalAlign=bottom;endArrow=block;labelBackgroundColor=none;fontFamily=Verdana;fontSize=12;edgeStyle=elbowEdgeStyle;elbow=vertical;" parent="1" edge="1">
          <mxGeometry relative="1" as="geometry">
            <mxPoint x="332" y="1740" as="sourcePoint" />
            <mxPoint x="482" y="1740" as="targetPoint" />
            <mxPoint as="offset" />
          </mxGeometry>
        </mxCell>
        <mxCell id="q32e-Nsv5xrbjenCgJHf-47" value="Request payment" style="html=1;verticalAlign=bottom;endArrow=block;labelBackgroundColor=none;fontFamily=Verdana;fontSize=12;edgeStyle=elbowEdgeStyle;elbow=vertical;" parent="1" edge="1">
          <mxGeometry relative="1" as="geometry">
            <mxPoint x="330" y="1790" as="sourcePoint" />
            <mxPoint x="670" y="1790" as="targetPoint" />
            <mxPoint as="offset" />
          </mxGeometry>
        </mxCell>
        <mxCell id="q32e-Nsv5xrbjenCgJHf-48" value="Alternative" style="shape=umlFrame;whiteSpace=wrap;html=1;pointerEvents=0;recursiveResize=0;container=1;collapsible=0;width=130;height=27;" parent="1" vertex="1">
          <mxGeometry x="20" y="1890" width="880" height="210" as="geometry" />
        </mxCell>
        <mxCell id="q32e-Nsv5xrbjenCgJHf-49" value="[if card is valid]" style="text;html=1;" parent="q32e-Nsv5xrbjenCgJHf-48" vertex="1">
          <mxGeometry width="100" height="20" relative="1" as="geometry">
            <mxPoint x="20" y="40" as="offset" />
          </mxGeometry>
        </mxCell>
        <mxCell id="q32e-Nsv5xrbjenCgJHf-50" value="[else]" style="line;strokeWidth=1;dashed=1;labelPosition=center;verticalLabelPosition=bottom;align=left;verticalAlign=top;spacingLeft=20;spacingTop=15;html=1;whiteSpace=wrap;" parent="q32e-Nsv5xrbjenCgJHf-48" vertex="1">
          <mxGeometry y="97" width="880" height="10" as="geometry" />
        </mxCell>
        <mxCell id="q32e-Nsv5xrbjenCgJHf-51" value="Eject card" style="html=1;verticalAlign=bottom;endArrow=none;labelBackgroundColor=none;fontFamily=Verdana;fontSize=12;edgeStyle=elbowEdgeStyle;elbow=vertical;startFill=1;startArrow=block;" parent="q32e-Nsv5xrbjenCgJHf-48" edge="1">
          <mxGeometry relative="1" as="geometry">
            <mxPoint x="150" y="190" as="sourcePoint" />
            <mxPoint x="470" y="190" as="targetPoint" />
          </mxGeometry>
        </mxCell>
        <mxCell id="78dpgmLQB11D2IYrQz_1-1" value="Card OK" style="html=1;verticalAlign=bottom;endArrow=block;dashed=1;endSize=8;labelBackgroundColor=none;fontFamily=Verdana;fontSize=12;edgeStyle=elbowEdgeStyle;elbow=vertical;endFill=1;" edge="1" parent="q32e-Nsv5xrbjenCgJHf-48">
          <mxGeometry x="0.001" relative="1" as="geometry">
            <mxPoint x="479.99517241379306" y="40" as="targetPoint" />
            <Array as="points">
              <mxPoint x="578.84" y="40" />
              <mxPoint x="608.84" y="40" />
            </Array>
            <mxPoint x="634.84" y="40" as="sourcePoint" />
            <mxPoint as="offset" />
          </mxGeometry>
        </mxCell>
        <mxCell id="78dpgmLQB11D2IYrQz_1-2" value="Request PIN" style="html=1;verticalAlign=bottom;endArrow=none;labelBackgroundColor=none;fontFamily=Verdana;fontSize=12;edgeStyle=elbowEdgeStyle;elbow=vertical;startFill=1;startArrow=block;" edge="1" parent="q32e-Nsv5xrbjenCgJHf-48">
          <mxGeometry relative="1" as="geometry">
            <mxPoint x="150" y="70" as="sourcePoint" />
            <mxPoint x="470" y="70" as="targetPoint" />
            <mxPoint as="offset" />
          </mxGeometry>
        </mxCell>
        <mxCell id="78dpgmLQB11D2IYrQz_1-3" value="Card expired" style="html=1;verticalAlign=bottom;endArrow=block;dashed=1;endSize=8;labelBackgroundColor=none;fontFamily=Verdana;fontSize=12;edgeStyle=elbowEdgeStyle;elbow=vertical;endFill=1;" edge="1" parent="q32e-Nsv5xrbjenCgJHf-48">
          <mxGeometry x="0.001" relative="1" as="geometry">
            <mxPoint x="489.99517241379306" y="140" as="targetPoint" />
            <Array as="points">
              <mxPoint x="588.84" y="140" />
              <mxPoint x="618.84" y="140" />
            </Array>
            <mxPoint x="644.84" y="140" as="sourcePoint" />
            <mxPoint as="offset" />
          </mxGeometry>
        </mxCell>
        <mxCell id="q32e-Nsv5xrbjenCgJHf-53" value="Calculate order" style="html=1;verticalAlign=bottom;endArrow=none;labelBackgroundColor=none;fontFamily=Verdana;fontSize=12;edgeStyle=elbowEdgeStyle;elbow=vertical;startFill=1;startArrow=block;" parent="1" edge="1">
          <mxGeometry relative="1" as="geometry">
            <mxPoint x="332" y="1670" as="sourcePoint" />
            <mxPoint x="482" y="1670" as="targetPoint" />
            <mxPoint as="offset" />
          </mxGeometry>
        </mxCell>
        <mxCell id="q32e-Nsv5xrbjenCgJHf-54" value="Use card to pay" style="html=1;verticalAlign=bottom;endArrow=block;labelBackgroundColor=none;fontFamily=Verdana;fontSize=12;edgeStyle=elbowEdgeStyle;elbow=vertical;" parent="1" edge="1">
          <mxGeometry relative="1" as="geometry">
            <mxPoint x="169" y="1830" as="sourcePoint" />
            <mxPoint x="490" y="1830" as="targetPoint" />
            <mxPoint as="offset" />
          </mxGeometry>
        </mxCell>
        <mxCell id="q32e-Nsv5xrbjenCgJHf-56" value="Verify card" style="html=1;verticalAlign=bottom;endArrow=none;labelBackgroundColor=none;fontFamily=Verdana;fontSize=12;edgeStyle=elbowEdgeStyle;elbow=vertical;startFill=1;startArrow=block;" parent="1" edge="1">
          <mxGeometry relative="1" as="geometry">
            <mxPoint x="507" y="1870" as="sourcePoint" />
            <mxPoint x="657" y="1870" as="targetPoint" />
            <mxPoint as="offset" />
          </mxGeometry>
        </mxCell>
        <mxCell id="78dpgmLQB11D2IYrQz_1-4" value="Payment accepted" style="html=1;verticalAlign=bottom;endArrow=block;dashed=1;endSize=8;labelBackgroundColor=none;fontFamily=Verdana;fontSize=12;edgeStyle=elbowEdgeStyle;elbow=vertical;endFill=1;" edge="1" parent="1">
          <mxGeometry x="0.001" relative="1" as="geometry">
            <mxPoint x="329.99517241379306" y="2150" as="targetPoint" />
            <Array as="points">
              <mxPoint x="428.84000000000003" y="2150" />
              <mxPoint x="458.84000000000003" y="2150" />
            </Array>
            <mxPoint x="484.84000000000003" y="2150" as="sourcePoint" />
            <mxPoint as="offset" />
          </mxGeometry>
        </mxCell>
        <mxCell id="78dpgmLQB11D2IYrQz_1-5" value="Forward order" style="html=1;verticalAlign=bottom;endArrow=block;labelBackgroundColor=none;fontFamily=Verdana;fontSize=12;edgeStyle=elbowEdgeStyle;elbow=vertical;" edge="1" parent="1">
          <mxGeometry relative="1" as="geometry">
            <mxPoint x="497" y="2180" as="sourcePoint" />
            <mxPoint x="830" y="2180" as="targetPoint" />
          </mxGeometry>
        </mxCell>
        <mxCell id="78dpgmLQB11D2IYrQz_1-6" value="Prepare and serve order" style="html=1;verticalAlign=bottom;endArrow=none;labelBackgroundColor=none;fontFamily=Verdana;fontSize=12;edgeStyle=elbowEdgeStyle;elbow=vertical;startFill=1;startArrow=block;" edge="1" parent="1">
          <mxGeometry relative="1" as="geometry">
            <mxPoint x="170" y="2260" as="sourcePoint" />
            <mxPoint x="833.5" y="2260" as="targetPoint" />
          </mxGeometry>
        </mxCell>
      </root>
    </mxGraphModel>
  </diagram>
</mxfile>
